# xmcd
#
# Track frame offsets: 
#        150
#        13855
#        30845
#        44461
#        61395
#        75994
#        94103
#        109456
#        130140
#        152746
#        171985
#        189519
#
# Disc length: 2787 seconds
#
# Revision: 0
# Processed by: cddbd v1.5.2PL0 Copyright (c) Steve Scherf et al.
# Submitted via: ExactAudioCopy v0.95b4
#
DISCID=940ae10c
DTITLE=Aspen Black - A Hundred Years Too Late
DYEAR=2003
DGENRE=Country
TTITLE0=Cowboy
TTITLE1=Lone Rider's Prayer
TTITLE2=A Hundred Years Too Late
TTITLE3=Rode A Rainbow
TTITLE4=Barrel Horse Blues
TTITLE5=Someday, Cowboy
TTITLE6=Ride, Cowgirl, Ride
TTITLE7=Hoofprints On The Cloudes
TTITLE8=The West
TTITLE9=Old Western Sky (The Ballad Of Ian Tyson)
TTITLE10=They'll Just Ride On
TTITLE11=Campfire's End (Close Your Eyes)
EXTD=
EXTT0=
EXTT1=
EXTT2=
EXTT3=
EXTT4=
EXTT5=
EXTT6=
EXTT7=
EXTT8=
EXTT9=
EXTT10=
EXTT11=
PLAYORDER=
